<svg class="widget-social__link-icon icon icon-category" width="24" height="24" viewBox="0 0 512 512"><defs id="defs19"/><g id="g3021"/><g id="Layer_1_1_"/><g id="Layer_1_1_-7" transform="translate(-819.672,-61.929991)"/><g id="g2989"><rect height="512" id="rect2989" rx="70" ry="70" style="fill:#ea7819;fill-opacity:1;stroke:none" transform="scale(-1,-1)" width="512" x="-512" y="-512"/><path d="m81.05643 267.04958c43.7041.0 84.78879 17.07214 115.66407 48.12395 30.93179 31.05179 47.96156 72.41184 47.96156 116.44072h67.34951c0-127.8857-103.61898-231.92124-230.97514-231.92124v67.35657zM81.1624 147.65054c155.7603.0 282.48808 127.4197 282.48808 284.04844H431C431 237.92528 274.05354 80.30102 81.1624 80.30102v67.34952zm93.13421 236.99769c0 25.75647-20.89183 46.6483-46.6483 46.6483C101.89184 431.29653 81 410.41176 81 384.64823c0-25.7706 20.88477-46.64831 46.64124-46.64831 25.75649.0 46.65537 20.87771 46.65537 46.64831z" id="path3844" style="fill:#fff"/></g></svg>